<?xml version="1.0" encoding="UTF-8"?>
<svg xmlns="http://www.w3.org/2000/svg" xmlns:xlink="http://www.w3.org/1999/xlink" width="136px" height="68px" viewBox="0 0 68 68" version="1.1">
    <defs>
        <linearGradient id="linear0" gradientUnits="userSpaceOnUse" x1="200" y1="0" x2="200" y2="400" gradientTransform="matrix(0.17,0,0,0.17,0,0)">
            <stop offset="0" style="stop-color:rgb(0%,70.196078%,100%);stop-opacity:1;" />
            <stop offset="1" style="stop-color:rgb(4.313725%,54.117647%,100%);stop-opacity:1;" /> </linearGradient>
    </defs>
    <g id="surface3">
        <path style=" stroke:none;fill-rule:nonzero;fill:url(#linear0);" d="M 0 34 C 0 19.652344 0 12.476562 3.730469 7.492188 C 4.796875 6.066406 6.066406 4.796875 7.492188 3.730469 C 12.476562 0 19.652344 0 34 0 C 48.347656 0 55.523438 0 60.507812 3.730469 C 61.933594 4.796875 63.203125 6.066406 64.269531 7.492188 C 68 12.476562 68 19.652344 68 34 C 68 48.347656 68 55.523438 64.269531 60.507812 C 63.203125 61.933594 61.933594 63.203125 60.507812 64.269531 C 55.523438 68 48.347656 68 34 68 C 19.652344 68 12.476562 68 7.492188 64.269531 C 6.066406 63.203125 4.796875 61.933594 3.730469 60.507812 C 0 55.523438 0 48.347656 0 34 Z M 0 34 " />
        <path style="fill:none;stroke-width:41;stroke-linecap:round;stroke-linejoin:round;stroke:rgb(100%,100%,100%);stroke-opacity:1;stroke-miterlimit:4;" d="M 92.991728 199.701287 L 177.803309 284.995404 L 319.990809 142.003676 " transform="matrix(0.17,0,0,0.17,0,0)" /> </g>
</svg>